#!OML:ASF F:\VICON\USERDATA\INSTALL\rory3\rory3.ASF
:FULLY-SPECIFIED
:DEGREES
84
root 1.326009688360157 17.871570069762374 54.744130405923066 -3.319415366587851 -0.47030199529766015 3.984137507832613
lfemur 9.90859675584414 -5.3857687650760395 -28.55607055435552
ltibia 22.728094251261922
lfoot -3.135638583722817 -6.159648601415535
ltoes -4.769719236523436
rfemur -24.35697848095466 0.0438513710209163 18.86812254611774
rtibia 50.70845997312488
rfoot -9.077283994645335 -2.039024525797548
rtoes 3.365184264779047
lowerback -1.0 -1.891744592087357 -3.9475748987602537
upperback 0.08304577325375785 -2.536375358504044 0.9819664510774504
thorax -4.915649976133547 -1.2300261752061648 2.893712007115626
lowerneck -16.57124734155107 -2.8776046622268687 -1.8185947215441514
upperneck 21.662565607575317 -3.622831574632246 1.0594001329107354
head 9.691975349952214 -1.7610853328455864 0.2815364205478524
lclavicle 2.842929632738365e-16 -8.841090423648429e-16
lhumerus -26.647498306345632 0.39208354170517 79.90600955387977
lradius 27.792526528209848
lwrist 5.738020819507331
lhand -28.380233948662667 19.922888433190856
lfingers nan
lthumb -1.6164486775171272 50.42254135845441
rclavicle 3.880270999436804e-16 -7.962845173853507e-16
rhumerus -31.29132627869873 -18.749969343166946 -80.83774781624938
rradius 31.26744748377136
rwrist -0.29593977435698315
rhand -17.427471455838276 -1.0
rfingers nan
rthumb 8.872638089903601 -7.279680173506447
85
root 1.3942813151279523 17.887297299425583 55.45177067572098 -3.095310368323795 -1.0247380461405402 3.1695340710284574
lfemur 11.062901074140363 -5.063834343770497 -27.578116656389945
ltibia 24.399521389592252
lfoot -2.657281584936668 -5.713241793215584
ltoes -4.694592869599265
rfemur -24.576273620123818 0.5106776634154455 20.194775342144762
rtibia 45.66953568764338
rfoot -9.823153410793523 -1.7672090187661285
rtoes 2.620669731177328
lowerback -1.0 -2.072278631752761 -3.47862316629099
upperback 0.0025190976667571474 -2.7204682292397058 1.2382833791196752
thorax -4.869728538009925 -1.3227889310922194 3.075190626197773
lowerneck -16.52242704368381 -2.8166662415855903 -1.947970725417433
upperneck 21.87960436763931 -3.49700729825018 0.9032050893680912
head 9.744504619029179 -1.7145044406201957 0.26810235756208534
lclavicle 2.786450855304333e-16 -8.87263156926293e-16
lhumerus -26.10806748451252 -6.184895152649972e-05 79.7362733717091
lradius 27.907159177911446
lwrist 5.775884148687804
lhand -28.369009097403882 20.159253570587587
lfingers nan
lthumb -1.625266345285672 50.55121663198999
rclavicle 3.8587830140620903e-16 -7.955753544980477e-16
rhumerus -31.985324137372334 -19.452668802210223 -80.36786658651427
rradius 31.626515479274673
rwrist -0.10048741308208031
rhand -17.428351099799677 -1.0
rfingers nan
rthumb 8.860216201444139 -7.271477554365708
86
root 1.4449116145838614 17.903159510976792 55.5810065352522 -2.8930851081229285 -1.6397501604904636 1.7806578553077752
lfemur 11.523405204056466 -4.534430354586834 -25.91134156194017
ltibia 26.652571386194523
lfoot -2.349832034132521 -5.473146608339662
ltoes -4.002378003860726
rfemur -24.62492832142935 1.1705155913566498 21.96778974805237
rtibia 40.78123594916864
rfoot -10.702616362532527 -1.8543840832551384
rtoes 1.78174856761924
lowerback -1.0 -2.184757313895947 -2.608525658627365
upperback -0.08462921742870999 -2.786030497912282 1.5233661441436943
thorax -4.878964345293475 -1.3741292586248093 3.152303109233401
lowerneck -16.477192731541848 -2.7772402398245633 -2.034038448310442
upperneck 22.044534457263897 -3.41044478643117 0.7434816475395105
head 9.783147473780906 -1.684822641165983 0.23435209826214426
lclavicle 2.748443610777839e-16 -8.894264086076577e-16
lhumerus -25.844566410346435 -0.0928938073518184 79.63116073029764
lradius 27.919710518616952
lwrist 5.912707740623926
lhand -28.342519472353835 20.211842173961376
lfingers nan
lthumb -1.5646953692329095 50.66007433555001
rclavicle 3.8486029650094366e-16 -7.947761621949292e-16
rhumerus -32.50864590346722 -20.140327436756277 -79.7120961015576
rradius 31.99480086270252
rwrist 0.4127041422977711
rhand -17.426584034362257 -1.0
rfingers nan
rthumb 8.874583270669067 -7.219388619452633
87
root 1.4792582327063801 17.915898353310837 55.36632697134314 -2.773688127963678 -2.22125036058413 0.5322605335751438
lfemur 11.236219823174679 -3.869528097757642 -24.10414215149398
ltibia 29.586502120665912
lfoot -2.542788133592742 -5.294779927573067
ltoes -3.5346278062587513
rfemur -23.950412200206937 1.8413856289168677 23.543313444034336
rtibia 36.20407647359568
rfoot -11.657597833285168 -2.864898515349599
rtoes 0.9064860414202753
lowerback -1.0 -2.1964440351105226 -1.7540090888329796
upperback -0.14510828499860856 -2.724287291381453 1.742883882356665
thorax -4.902664641863568 -1.361368107836486 3.1705491716174743
lowerneck -16.45706625130655 -2.758768708499018 -2.0655301438132856
upperneck 22.12194927458696 -3.365263082626409 0.5987509618364344
head 9.797343594931647 -1.6722326588954943 0.18811083996190658
lclavicle 2.7307452586050214e-16 -8.905647786335517e-16
lhumerus -25.797342216116242 0.023391246806284016 79.60905166390162
lradius 27.757220255251543
lwrist 6.042071371673256
lhand -28.25180090432517 20.312862917199485
lfingers nan
lthumb -1.559808314296201 50.55195766874816
rclavicle 3.8611053720793143e-16 -7.933212579817667e-16
rhumerus -32.86453835361644 -20.879858491930722 -78.97819666218741
rradius 32.31317881687753
rwrist 0.9941824661523744
rhand -17.43776730319509 -1.0
rfingers nan
rthumb 8.852401553863787 -7.278557696805735
